<svg width="768" height="384" viewBox="0 0 768 384" fill="none" xmlns="http://www.w3.org/2000/svg">
<path d="M96.6171 18.1489C96.6171 8.15141 105.788 0.046875 117.101 0.046875H651.837C663.15 0.046875 672.321 8.15142 672.321 18.1489V365.898C672.321 375.895 663.15 384 651.837 384H117.101C105.788 384 96.6171 375.895 96.6171 365.898V18.1489Z" fill="url(#paint0_linear_1617_3377)"/>
<path fill-rule="evenodd" clip-rule="evenodd" d="M651.536 1.95235H116.8C106.678 1.95235 98.472 9.20378 98.472 18.1489V365.898C98.472 374.843 106.678 382.095 116.8 382.095H651.536C661.658 382.095 669.864 374.843 669.864 365.898V18.1489C669.864 9.20378 661.658 1.95235 651.536 1.95235ZM116.8 0.046875C105.487 0.046875 96.3158 8.15141 96.3158 18.1489V365.898C96.3158 375.895 105.487 384 116.8 384H651.536C662.849 384 672.02 375.895 672.02 365.898V18.1489C672.02 8.15142 662.849 0.046875 651.536 0.046875H116.8Z" fill="url(#paint1_linear_1617_3377)"/>
<path d="M439.151 299.686C439.151 295.737 442.773 292.537 447.242 292.537H470.506C474.975 292.537 478.598 295.737 478.598 299.686V320.239C478.598 324.187 474.975 327.388 470.506 327.388H447.242C442.773 327.388 439.151 324.187 439.151 320.239V299.686Z" fill="#51CB9C"/>
<path d="M453.065 316.665L446.23 309.948L453.065 303.26H456.326L449.463 309.948L456.326 316.665H453.065Z" fill="white"/>
<path d="M461.393 303.26H464.654L471.517 309.948L464.654 316.665H461.393L468.256 309.948L461.393 303.26Z" fill="white"/>
<path d="M310.857 110.091C310.857 106.143 314.479 102.942 318.948 102.942H342.212C346.681 102.942 350.304 106.143 350.304 110.091V130.645C350.304 134.593 346.681 137.793 342.212 137.793H318.948C314.479 137.793 310.857 134.593 310.857 130.645V110.091Z" fill="#1ABCFE"/>
<path fill-rule="evenodd" clip-rule="evenodd" d="M334.056 116.088L330.853 111.757H321.244V130.523H340.462V116.088H334.056ZM337.933 118.322H332.688L329.485 113.991H323.773V128.289H337.933V118.322Z" fill="white"/>
<path d="M512.461 149.153C512.461 145.204 516.084 142.004 520.553 142.004H543.817C548.286 142.004 551.908 145.204 551.908 149.153V169.706C551.908 173.654 548.286 176.855 543.817 176.855H520.553C516.084 176.855 512.461 173.654 512.461 169.706V149.153Z" fill="#FFC04A"/>
<path d="M522.576 158.528C524.213 158.259 525.031 157.515 525.031 156.296C525.031 155.757 524.951 154.836 524.79 153.532C524.63 152.143 524.55 151.137 524.55 150.513C524.55 149.493 524.871 148.713 525.512 148.174C526.17 147.636 527.044 147.366 528.135 147.366H529.531V149.046H528.544C527.919 149.046 527.453 149.174 527.149 149.429C526.844 149.67 526.691 150.074 526.691 150.641C526.691 151.052 526.724 151.562 526.788 152.171C526.852 152.767 526.892 153.171 526.908 153.383C527.068 154.744 527.149 155.736 527.149 156.36C527.149 157.111 526.932 157.742 526.499 158.252C526.082 158.748 525.432 159.081 524.55 159.251V159.294C525.432 159.464 526.082 159.804 526.499 160.314C526.932 160.825 527.149 161.455 527.149 162.207C527.149 162.83 527.068 163.822 526.908 165.183C526.892 165.396 526.852 165.807 526.788 166.416C526.724 167.012 526.691 167.515 526.691 167.926C526.691 168.493 526.844 168.897 527.149 169.138C527.453 169.393 527.919 169.52 528.544 169.52H529.531V171.2H528.135C527.044 171.2 526.17 170.931 525.512 170.392C524.871 169.853 524.55 169.074 524.55 168.053C524.55 167.43 524.63 166.423 524.79 165.034C524.951 163.73 525.031 162.809 525.031 162.27C525.031 161.051 524.213 160.307 522.576 160.038V158.528Z" fill="#1C1E53"/>
<path d="M542.087 160.038C540.451 160.307 539.633 161.051 539.633 162.27C539.633 162.809 539.713 163.73 539.873 165.034C540.034 166.423 540.114 167.43 540.114 168.053C540.114 169.074 539.785 169.853 539.127 170.392C538.486 170.931 537.619 171.2 536.528 171.2H535.132V169.52H536.119C536.745 169.52 537.21 169.393 537.515 169.138C537.82 168.897 537.972 168.493 537.972 167.926C537.972 167.515 537.94 167.012 537.876 166.416C537.812 165.807 537.772 165.396 537.756 165.183C537.595 163.822 537.515 162.83 537.515 162.207C537.515 161.455 537.723 160.825 538.141 160.314C538.574 159.804 539.232 159.464 540.114 159.294V159.251C539.232 159.081 538.574 158.748 538.141 158.252C537.723 157.742 537.515 157.111 537.515 156.36C537.515 155.736 537.595 154.744 537.756 153.383C537.772 153.171 537.812 152.767 537.876 152.171C537.94 151.562 537.972 151.052 537.972 150.641C537.972 150.074 537.82 149.67 537.515 149.429C537.21 149.174 536.745 149.046 536.119 149.046H535.132V147.366H536.528C537.619 147.366 538.486 147.636 539.127 148.174C539.785 148.713 540.114 149.493 540.114 150.513C540.114 151.137 540.034 152.143 539.873 153.532C539.713 154.836 539.633 155.757 539.633 156.296C539.633 157.515 540.451 158.259 542.087 158.528V160.038Z" fill="#1C1E53"/>
<path d="M0.365448 107.705C0.365448 101.391 6.15762 96.2725 13.3026 96.2725H220.297C227.442 96.2725 233.234 101.391 233.234 107.705V225.845C233.234 232.159 227.442 237.278 220.297 237.278H13.3026C6.15762 237.278 0.365448 232.159 0.365448 225.845V107.705Z" fill="url(#paint2_linear_1617_3377)"/>
<path fill-rule="evenodd" clip-rule="evenodd" d="M220.297 98.1779H13.3026C7.34845 98.1779 2.52164 102.443 2.52164 107.705V225.845C2.52164 231.107 7.34845 235.372 13.3026 235.372H220.297C226.251 235.372 231.078 231.107 231.078 225.845V107.705C231.078 102.443 226.251 98.1779 220.297 98.1779ZM13.3026 96.2725C6.15762 96.2725 0.365448 101.391 0.365448 107.705V225.845C0.365448 232.159 6.15762 237.278 13.3026 237.278H220.297C227.442 237.278 233.234 232.159 233.234 225.845V107.705C233.234 101.391 227.442 96.2725 220.297 96.2725H13.3026Z" fill="url(#paint3_linear_1617_3377)"/>
<path d="M26.2397 133.431C26.2397 130.274 29.1358 127.714 32.7083 127.714H93.0818C96.6543 127.714 99.5503 130.274 99.5503 133.431V194.406C99.5503 197.563 96.6543 200.122 93.0818 200.122H32.7083C29.1358 200.122 26.2397 197.563 26.2397 194.406V133.431Z" fill="white" fill-opacity="0.17"/>
<path d="M113.564 132.954C113.564 130.06 116.219 127.714 119.493 127.714H196.038C199.313 127.714 201.968 130.06 201.968 132.954C201.968 135.848 199.313 138.194 196.038 138.194H119.493C116.219 138.194 113.564 135.848 113.564 132.954Z" fill="white" fill-opacity="0.6"/>
<path d="M113.564 152.961C113.564 150.067 116.219 147.721 119.493 147.721H196.038C199.313 147.721 201.968 150.067 201.968 152.961C201.968 155.855 199.313 158.201 196.038 158.201H119.493C116.219 158.201 113.564 155.855 113.564 152.961Z" fill="white" fill-opacity="0.26"/>
<path d="M113.564 186.307C113.564 176.572 122.493 168.681 133.509 168.681H134.587C145.602 168.681 154.532 176.572 154.532 186.307C154.532 196.041 145.602 203.932 134.587 203.932H133.509C122.493 203.932 113.564 196.041 113.564 186.307Z" fill="#767799"/>
<path d="M109.255 35.7748C109.255 24.988 119.15 16.2437 131.356 16.2437H628.358C640.564 16.2437 650.459 24.988 650.459 35.7748C650.459 46.5615 640.564 55.3059 628.358 55.3059H131.356C119.149 55.3059 109.255 46.5615 109.255 35.7748Z" fill="url(#paint4_linear_1617_3377)"/>
<path d="M560.976 212.507C560.976 206.193 566.769 201.074 573.914 201.074H755.034C762.179 201.074 767.971 206.193 767.971 212.507V330.647C767.971 336.961 762.179 342.08 755.034 342.08H573.914C566.769 342.08 560.976 336.961 560.976 330.647V212.507Z" fill="url(#paint5_linear_1617_3377)"/>
<path fill-rule="evenodd" clip-rule="evenodd" d="M755.034 202.98H573.914C567.959 202.98 563.133 207.245 563.133 212.507V330.647C563.133 335.909 567.959 340.174 573.914 340.174H755.034C760.988 340.174 765.815 335.909 765.815 330.647V212.507C765.815 207.245 760.988 202.98 755.034 202.98ZM573.914 201.074C566.769 201.074 560.976 206.193 560.976 212.507V330.647C560.976 336.961 566.769 342.08 573.914 342.08H755.034C762.179 342.08 767.971 336.961 767.971 330.647V212.507C767.971 206.193 762.179 201.074 755.034 201.074H573.914Z" fill="url(#paint6_linear_1617_3377)"/>
<path d="M580.142 223.939C580.142 221.834 582.072 220.128 584.454 220.128H744.492C746.873 220.128 748.804 221.834 748.804 223.939C748.804 226.044 746.873 227.75 744.492 227.75H584.454C582.072 227.75 580.142 226.044 580.142 223.939Z" fill="url(#paint7_linear_1617_3377)"/>
<path d="M580.142 242.994C580.142 240.889 582.072 239.183 584.454 239.183H636.203C638.584 239.183 640.515 240.889 640.515 242.994C640.515 245.099 638.584 246.805 636.203 246.805H584.454C582.072 246.805 580.142 245.099 580.142 242.994Z" fill="url(#paint8_linear_1617_3377)"/>
<path d="M648.182 242.994C648.182 240.889 650.113 239.183 652.495 239.183H672.619C675.001 239.183 676.932 240.889 676.932 242.994C676.932 245.099 675.001 246.805 672.619 246.805H652.495C650.113 246.805 648.182 245.099 648.182 242.994Z" fill="url(#paint9_linear_1617_3377)"/>
<path d="M580.142 319.214C580.142 317.11 582.072 315.403 584.454 315.403H636.203C638.584 315.403 640.515 317.11 640.515 319.214C640.515 321.319 638.584 323.025 636.203 323.025H584.454C582.072 323.025 580.142 321.319 580.142 319.214Z" fill="url(#paint10_linear_1617_3377)"/>
<path d="M648.182 319.214C648.182 317.11 650.113 315.403 652.495 315.403H672.619C675.001 315.403 676.932 317.11 676.932 319.214C676.932 321.319 675.001 323.025 672.619 323.025H652.495C650.113 323.025 648.182 321.319 648.182 319.214Z" fill="url(#paint11_linear_1617_3377)"/>
<path d="M614.642 281.104C614.642 278.999 616.573 277.293 618.955 277.293H633.329C635.711 277.293 637.642 278.999 637.642 281.104C637.642 283.208 635.711 284.915 633.329 284.915H618.955C616.573 284.915 614.642 283.208 614.642 281.104Z" fill="url(#paint12_linear_1617_3377)"/>
<path d="M646.267 281.104C646.267 278.999 648.198 277.293 650.58 277.293H711.911C714.293 277.293 716.224 278.999 716.224 281.104C716.224 283.208 714.293 284.915 711.911 284.915H650.58C648.198 284.915 646.267 283.208 646.267 281.104Z" fill="url(#paint13_linear_1617_3377)"/>
<path d="M580.142 281.104C580.142 278.999 582.072 277.293 584.454 277.293H604.579C606.96 277.293 608.891 278.999 608.891 281.104C608.891 283.208 606.96 284.915 604.579 284.915H584.454C582.072 284.915 580.142 283.208 580.142 281.104Z" fill="url(#paint14_linear_1617_3377)"/>
<path d="M580.142 262.049C580.142 259.944 582.072 258.238 584.454 258.238H654.411C656.792 258.238 658.723 259.944 658.723 262.049C658.723 264.153 656.792 265.86 654.411 265.86H584.454C582.072 265.86 580.142 264.153 580.142 262.049Z" fill="url(#paint15_linear_1617_3377)"/>
<path d="M665.433 262.049C665.433 259.944 667.363 258.238 669.745 258.238H702.327C704.709 258.238 706.64 259.944 706.64 262.049C706.64 264.153 704.709 265.86 702.328 265.86H669.745C667.363 265.86 665.433 264.153 665.433 262.049Z" fill="url(#paint16_linear_1617_3377)"/>
<path d="M580.142 300.16C580.142 298.055 582.072 296.349 584.454 296.349H654.411C656.792 296.349 658.723 298.055 658.723 300.16C658.723 302.264 656.792 303.971 654.411 303.971H584.454C582.072 303.971 580.142 302.264 580.142 300.16Z" fill="url(#paint17_linear_1617_3377)"/>
<path d="M148.765 35.9885C148.765 39.5965 145.454 42.5214 141.37 42.5214C137.286 42.5214 133.976 39.5965 133.976 35.9885C133.976 32.3805 137.286 29.4556 141.37 29.4556C145.454 29.4556 148.765 32.3805 148.765 35.9885Z" fill="#FED280"/>
<path d="M174.647 35.9885C174.647 39.5965 171.336 42.5214 167.252 42.5214C163.168 42.5214 159.857 39.5965 159.857 35.9885C159.857 32.3805 163.168 29.4556 167.252 29.4556C171.336 29.4556 174.647 32.3805 174.647 35.9885Z" fill="#8CFEE3" fill-opacity="0.9"/>
<path d="M200.531 35.9885C200.531 39.5965 197.22 42.5214 193.136 42.5214C189.052 42.5214 185.741 39.5965 185.741 35.9885C185.741 32.3805 189.052 29.4556 193.136 29.4556C197.22 29.4556 200.531 32.3805 200.531 35.9885Z" fill="#FF8DA9" fill-opacity="0.9"/>
<path d="M58.1514 162.461C56.117 160.116 52.4274 160.282 50.612 162.801L37.0015 181.682C34.707 184.865 36.9816 189.309 40.9055 189.309H84.9416C89.0041 189.309 91.239 184.586 88.663 181.445L81.375 172.557C79.5985 170.391 76.3544 170.194 74.3288 172.129L73.7202 172.711C71.7328 174.61 68.5614 174.461 66.7602 172.385L58.1514 162.461Z" fill="white"/>
<path d="M86.3643 148.928C86.3643 152.348 83.2269 155.121 79.3567 155.121C75.4865 155.121 72.3491 152.348 72.3491 148.928C72.3491 145.508 75.4865 142.735 79.3567 142.735C83.2269 142.735 86.3643 145.508 86.3643 148.928Z" fill="#C4C5DC"/>
<path fill-rule="evenodd" clip-rule="evenodd" d="M231.886 162.965C231.886 162.307 232.489 161.774 233.233 161.774H393.889V189.82C393.889 190.478 393.286 191.011 392.542 191.011C391.797 191.011 391.194 190.478 391.194 189.82V164.156H233.233C232.489 164.156 231.886 163.622 231.886 162.965Z" fill="url(#paint18_linear_1617_3377)"/>
<path fill-rule="evenodd" clip-rule="evenodd" d="M562.324 271.576C562.324 272.233 561.72 272.767 560.976 272.767L391.695 272.767L391.695 245.783C391.695 245.125 392.299 244.592 393.043 244.592C393.787 244.592 394.39 245.125 394.39 245.783L394.39 270.385L560.976 270.385C561.72 270.385 562.324 270.918 562.324 271.576Z" fill="url(#paint19_linear_1617_3377)"/>
<g filter="url(#filter0_d_1617_3377)">
<path fill-rule="evenodd" clip-rule="evenodd" d="M390.25 212.221C390.244 212.451 390.29 212.562 390.529 212.562H396.271C397.311 212.63 398.242 212.859 399.028 213.306C399.574 213.616 399.973 213.985 400.274 214.393C400.808 215.118 401.109 216.163 401.272 217.006C401.343 217.371 401.376 217.712 401.301 217.87C401.265 217.945 401.212 217.995 401.141 218.019C400.746 218.151 400.328 217.696 400.106 217.479C399.047 216.442 397.508 216.013 395.693 215.933H390.443C390.256 215.96 390.189 216.076 390.208 216.256V217.493C390.197 217.904 389.949 218.044 389.458 217.905L384.938 214.937L384.493 214.645L384.379 214.57C384.016 214.297 384.165 214.048 384.492 213.833L384.837 213.606L389.168 210.752C389.697 210.404 390.25 210.311 390.25 211.062V212.221ZM395.281 224.845C395.287 224.615 395.241 224.505 395.002 224.504H389.26C388.22 224.436 387.29 224.207 386.503 223.76C385.953 223.448 385.553 223.077 385.252 222.666C384.707 221.922 384.351 220.71 384.221 219.841C384.179 219.564 384.171 219.322 384.231 219.196C384.266 219.122 384.319 219.071 384.391 219.047C384.786 218.915 385.203 219.37 385.425 219.588C386.484 220.624 388.024 221.053 389.838 221.133H395.088C395.276 221.106 395.342 220.99 395.324 220.811V219.573C395.335 219.162 395.582 219.022 396.074 219.161L400.594 222.129L401.038 222.422L401.152 222.496C401.515 222.77 401.366 223.019 401.04 223.233L400.695 223.461L396.364 226.314C395.835 226.662 395.281 226.755 395.281 226.005L395.281 224.845Z" fill="#88F1DB"/>
</g>
<path d="M415.45 218.012C415.45 228.956 405.359 238.073 392.59 238.073C379.821 238.073 369.73 228.956 369.73 218.012C369.73 207.067 379.821 197.95 392.59 197.95C405.359 197.95 415.45 207.067 415.45 218.012Z" stroke="white" stroke-width="2.40629"/>
<path d="M299 162.964C299 168.226 294.173 172.492 288.219 172.492C282.265 172.492 277.438 168.226 277.438 162.964C277.438 157.703 282.265 153.437 288.219 153.437C294.173 153.437 299 157.703 299 162.964Z" fill="#383A68"/>
<path fill-rule="evenodd" clip-rule="evenodd" d="M288.219 170.586C292.982 170.586 296.844 167.174 296.844 162.964C296.844 158.755 292.982 155.342 288.219 155.342C283.455 155.342 279.594 158.755 279.594 162.964C279.594 167.174 283.455 170.586 288.219 170.586ZM288.219 172.492C294.173 172.492 299 168.226 299 162.964C299 157.703 294.173 153.437 288.219 153.437C282.265 153.437 277.438 157.703 277.438 162.964C277.438 168.226 282.265 172.492 288.219 172.492Z" fill="#63648A"/>
<path d="M534.023 271.577C534.023 276.839 529.196 281.104 523.242 281.104C517.288 281.104 512.461 276.839 512.461 271.577C512.461 266.315 517.288 262.05 523.242 262.05C529.196 262.05 534.023 266.315 534.023 271.577Z" fill="#383A68"/>
<path fill-rule="evenodd" clip-rule="evenodd" d="M523.242 279.199C528.005 279.199 531.867 275.786 531.867 271.577C531.867 267.367 528.005 263.955 523.242 263.955C518.479 263.955 514.617 267.367 514.617 271.577C514.617 275.786 518.479 279.199 523.242 279.199ZM523.242 281.104C529.196 281.104 534.023 276.839 534.023 271.577C534.023 266.315 529.196 262.05 523.242 262.05C517.288 262.05 512.461 266.315 512.461 271.577C512.461 276.839 517.288 281.104 523.242 281.104Z" fill="#63648A"/>
<path d="M162.08 175.83C162.08 171.882 165.703 168.681 170.172 168.681H193.436C197.905 168.681 201.528 171.882 201.528 175.83V196.383C201.528 200.331 197.905 203.532 193.436 203.532H170.172C165.703 203.532 162.08 200.331 162.08 196.383V175.83Z" fill="#767799"/>
<path fill-rule="evenodd" clip-rule="evenodd" d="M185.728 196.101H178.439V193.42H185.728V196.101Z" fill="white"/>
<path fill-rule="evenodd" clip-rule="evenodd" d="M171.689 178.064H191.918V182.376H188.884V180.745H174.723V182.376H171.689V178.064Z" fill="white"/>
<path fill-rule="evenodd" clip-rule="evenodd" d="M180.475 194.912L180.662 179.555L183.695 179.584L183.508 194.941L180.475 194.912Z" fill="white"/>
<g style="mix-blend-mode:overlay">
<path d="M96.6171 18.1489C96.6171 8.15141 105.788 0.046875 117.101 0.046875H651.837C663.15 0.046875 672.321 8.15142 672.321 18.1489V365.898C672.321 375.895 663.15 384 651.837 384H117.101C105.788 384 96.6171 375.895 96.6171 365.898V18.1489Z" fill="url(#paint20_linear_1617_3377)"/>
<path fill-rule="evenodd" clip-rule="evenodd" d="M651.536 1.95235H116.8C106.678 1.95235 98.472 9.20378 98.472 18.1489V365.898C98.472 374.843 106.678 382.095 116.8 382.095H651.536C661.658 382.095 669.864 374.843 669.864 365.898V18.1489C669.864 9.20378 661.658 1.95235 651.536 1.95235ZM116.8 0.046875C105.487 0.046875 96.3158 8.15141 96.3158 18.1489V365.898C96.3158 375.895 105.487 384 116.8 384H651.536C662.849 384 672.02 375.895 672.02 365.898V18.1489C672.02 8.15142 662.849 0.046875 651.536 0.046875H116.8Z" fill="url(#paint21_linear_1617_3377)"/>
<path d="M439.151 299.686C439.151 295.737 442.773 292.537 447.242 292.537H470.506C474.975 292.537 478.598 295.737 478.598 299.686V320.239C478.598 324.187 474.975 327.388 470.506 327.388H447.242C442.773 327.388 439.151 324.187 439.151 320.239V299.686Z" fill="#51CB9C"/>
<path d="M453.065 316.665L446.23 309.948L453.065 303.26H456.326L449.463 309.948L456.326 316.665H453.065Z" fill="white"/>
<path d="M461.393 303.26H464.654L471.517 309.948L464.654 316.665H461.393L468.256 309.948L461.393 303.26Z" fill="white"/>
<path d="M310.857 110.091C310.857 106.143 314.479 102.942 318.948 102.942H342.212C346.681 102.942 350.304 106.143 350.304 110.091V130.645C350.304 134.593 346.681 137.793 342.212 137.793H318.948C314.479 137.793 310.857 134.593 310.857 130.645V110.091Z" fill="#1ABCFE"/>
<path fill-rule="evenodd" clip-rule="evenodd" d="M334.056 116.088L330.853 111.757H321.244V130.523H340.462V116.088H334.056ZM337.933 118.322H332.688L329.485 113.991H323.773V128.289H337.933V118.322Z" fill="white"/>
<path d="M512.461 149.153C512.461 145.204 516.084 142.004 520.553 142.004H543.817C548.286 142.004 551.908 145.204 551.908 149.153V169.706C551.908 173.654 548.286 176.855 543.817 176.855H520.553C516.084 176.855 512.461 173.654 512.461 169.706V149.153Z" fill="#FFC04A"/>
<path d="M522.576 158.528C524.213 158.259 525.031 157.515 525.031 156.296C525.031 155.757 524.951 154.836 524.79 153.532C524.63 152.143 524.55 151.137 524.55 150.513C524.55 149.493 524.871 148.713 525.512 148.174C526.17 147.636 527.044 147.366 528.135 147.366H529.531V149.046H528.544C527.919 149.046 527.453 149.174 527.149 149.429C526.844 149.67 526.691 150.074 526.691 150.641C526.691 151.052 526.724 151.562 526.788 152.171C526.852 152.767 526.892 153.171 526.908 153.383C527.068 154.744 527.149 155.736 527.149 156.36C527.149 157.111 526.932 157.742 526.499 158.252C526.082 158.748 525.432 159.081 524.55 159.251V159.294C525.432 159.464 526.082 159.804 526.499 160.314C526.932 160.825 527.149 161.455 527.149 162.207C527.149 162.83 527.068 163.822 526.908 165.183C526.892 165.396 526.852 165.807 526.788 166.416C526.724 167.012 526.691 167.515 526.691 167.926C526.691 168.493 526.844 168.897 527.149 169.138C527.453 169.393 527.919 169.52 528.544 169.52H529.531V171.2H528.135C527.044 171.2 526.17 170.931 525.512 170.392C524.871 169.853 524.55 169.074 524.55 168.053C524.55 167.43 524.63 166.423 524.79 165.034C524.951 163.73 525.031 162.809 525.031 162.27C525.031 161.051 524.213 160.307 522.576 160.038V158.528Z" fill="#1C1E53"/>
<path d="M542.087 160.038C540.451 160.307 539.633 161.051 539.633 162.27C539.633 162.809 539.713 163.73 539.873 165.034C540.034 166.423 540.114 167.43 540.114 168.053C540.114 169.074 539.785 169.853 539.127 170.392C538.486 170.931 537.619 171.2 536.528 171.2H535.132V169.52H536.119C536.745 169.52 537.21 169.393 537.515 169.138C537.82 168.897 537.972 168.493 537.972 167.926C537.972 167.515 537.94 167.012 537.876 166.416C537.812 165.807 537.772 165.396 537.756 165.183C537.595 163.822 537.515 162.83 537.515 162.207C537.515 161.455 537.723 160.825 538.141 160.314C538.574 159.804 539.232 159.464 540.114 159.294V159.251C539.232 159.081 538.574 158.748 538.141 158.252C537.723 157.742 537.515 157.111 537.515 156.36C537.515 155.736 537.595 154.744 537.756 153.383C537.772 153.171 537.812 152.767 537.876 152.171C537.94 151.562 537.972 151.052 537.972 150.641C537.972 150.074 537.82 149.67 537.515 149.429C537.21 149.174 536.745 149.046 536.119 149.046H535.132V147.366H536.528C537.619 147.366 538.486 147.636 539.127 148.174C539.785 148.713 540.114 149.493 540.114 150.513C540.114 151.137 540.034 152.143 539.873 153.532C539.713 154.836 539.633 155.757 539.633 156.296C539.633 157.515 540.451 158.259 542.087 158.528V160.038Z" fill="#1C1E53"/>
<path d="M0.365448 107.705C0.365448 101.391 6.15762 96.2725 13.3026 96.2725H220.297C227.442 96.2725 233.234 101.391 233.234 107.705V225.845C233.234 232.159 227.442 237.278 220.297 237.278H13.3026C6.15762 237.278 0.365448 232.159 0.365448 225.845V107.705Z" fill="url(#paint22_linear_1617_3377)"/>
<path fill-rule="evenodd" clip-rule="evenodd" d="M220.297 98.1779H13.3026C7.34845 98.1779 2.52164 102.443 2.52164 107.705V225.845C2.52164 231.107 7.34845 235.372 13.3026 235.372H220.297C226.251 235.372 231.078 231.107 231.078 225.845V107.705C231.078 102.443 226.251 98.1779 220.297 98.1779ZM13.3026 96.2725C6.15762 96.2725 0.365448 101.391 0.365448 107.705V225.845C0.365448 232.159 6.15762 237.278 13.3026 237.278H220.297C227.442 237.278 233.234 232.159 233.234 225.845V107.705C233.234 101.391 227.442 96.2725 220.297 96.2725H13.3026Z" fill="url(#paint23_linear_1617_3377)"/>
<path d="M26.2397 133.431C26.2397 130.274 29.1358 127.714 32.7083 127.714H93.0818C96.6543 127.714 99.5503 130.274 99.5503 133.431V194.406C99.5503 197.563 96.6543 200.122 93.0818 200.122H32.7083C29.1358 200.122 26.2397 197.563 26.2397 194.406V133.431Z" fill="white" fill-opacity="0.17"/>
<path d="M113.564 132.954C113.564 130.06 116.219 127.714 119.493 127.714H196.038C199.313 127.714 201.968 130.06 201.968 132.954C201.968 135.848 199.313 138.194 196.038 138.194H119.493C116.219 138.194 113.564 135.848 113.564 132.954Z" fill="white" fill-opacity="0.6"/>
<path d="M113.564 152.961C113.564 150.067 116.219 147.721 119.493 147.721H196.038C199.313 147.721 201.968 150.067 201.968 152.961C201.968 155.855 199.313 158.201 196.038 158.201H119.493C116.219 158.201 113.564 155.855 113.564 152.961Z" fill="white" fill-opacity="0.26"/>
<path d="M113.564 186.307C113.564 176.572 122.493 168.681 133.509 168.681H134.587C145.602 168.681 154.532 176.572 154.532 186.307C154.532 196.041 145.602 203.932 134.587 203.932H133.509C122.493 203.932 113.564 196.041 113.564 186.307Z" fill="#767799"/>
<path d="M109.255 35.7748C109.255 24.988 119.15 16.2437 131.356 16.2437H628.358C640.564 16.2437 650.459 24.988 650.459 35.7748C650.459 46.5615 640.564 55.3059 628.358 55.3059H131.356C119.149 55.3059 109.255 46.5615 109.255 35.7748Z" fill="url(#paint24_linear_1617_3377)"/>
<path d="M560.976 212.507C560.976 206.193 566.769 201.074 573.914 201.074H755.034C762.179 201.074 767.971 206.193 767.971 212.507V330.647C767.971 336.961 762.179 342.08 755.034 342.08H573.914C566.769 342.08 560.976 336.961 560.976 330.647V212.507Z" fill="url(#paint25_linear_1617_3377)"/>
<path fill-rule="evenodd" clip-rule="evenodd" d="M755.034 202.98H573.914C567.959 202.98 563.133 207.245 563.133 212.507V330.647C563.133 335.909 567.959 340.174 573.914 340.174H755.034C760.988 340.174 765.815 335.909 765.815 330.647V212.507C765.815 207.245 760.988 202.98 755.034 202.98ZM573.914 201.074C566.769 201.074 560.976 206.193 560.976 212.507V330.647C560.976 336.961 566.769 342.08 573.914 342.08H755.034C762.179 342.08 767.971 336.961 767.971 330.647V212.507C767.971 206.193 762.179 201.074 755.034 201.074H573.914Z" fill="url(#paint26_linear_1617_3377)"/>
<path d="M580.142 223.939C580.142 221.834 582.072 220.128 584.454 220.128H744.492C746.873 220.128 748.804 221.834 748.804 223.939C748.804 226.044 746.873 227.75 744.492 227.75H584.454C582.072 227.75 580.142 226.044 580.142 223.939Z" fill="url(#paint27_linear_1617_3377)"/>
<path d="M580.142 242.994C580.142 240.889 582.072 239.183 584.454 239.183H636.203C638.584 239.183 640.515 240.889 640.515 242.994C640.515 245.099 638.584 246.805 636.203 246.805H584.454C582.072 246.805 580.142 245.099 580.142 242.994Z" fill="url(#paint28_linear_1617_3377)"/>
<path d="M648.182 242.994C648.182 240.889 650.113 239.183 652.495 239.183H672.619C675.001 239.183 676.932 240.889 676.932 242.994C676.932 245.099 675.001 246.805 672.619 246.805H652.495C650.113 246.805 648.182 245.099 648.182 242.994Z" fill="url(#paint29_linear_1617_3377)"/>
<path d="M580.142 319.214C580.142 317.11 582.072 315.403 584.454 315.403H636.203C638.584 315.403 640.515 317.11 640.515 319.214C640.515 321.319 638.584 323.025 636.203 323.025H584.454C582.072 323.025 580.142 321.319 580.142 319.214Z" fill="url(#paint30_linear_1617_3377)"/>
<path d="M648.182 319.214C648.182 317.11 650.113 315.403 652.495 315.403H672.619C675.001 315.403 676.932 317.11 676.932 319.214C676.932 321.319 675.001 323.025 672.619 323.025H652.495C650.113 323.025 648.182 321.319 648.182 319.214Z" fill="url(#paint31_linear_1617_3377)"/>
<path d="M614.642 281.104C614.642 278.999 616.573 277.293 618.955 277.293H633.329C635.711 277.293 637.642 278.999 637.642 281.104C637.642 283.208 635.711 284.915 633.329 284.915H618.955C616.573 284.915 614.642 283.208 614.642 281.104Z" fill="url(#paint32_linear_1617_3377)"/>
<path d="M646.267 281.104C646.267 278.999 648.198 277.293 650.58 277.293H711.911C714.293 277.293 716.224 278.999 716.224 281.104C716.224 283.208 714.293 284.915 711.911 284.915H650.58C648.198 284.915 646.267 283.208 646.267 281.104Z" fill="url(#paint33_linear_1617_3377)"/>
<path d="M580.142 281.104C580.142 278.999 582.072 277.293 584.454 277.293H604.579C606.96 277.293 608.891 278.999 608.891 281.104C608.891 283.208 606.96 284.915 604.579 284.915H584.454C582.072 284.915 580.142 283.208 580.142 281.104Z" fill="url(#paint34_linear_1617_3377)"/>
<path d="M580.142 262.049C580.142 259.944 582.072 258.238 584.454 258.238H654.411C656.792 258.238 658.723 259.944 658.723 262.049C658.723 264.153 656.792 265.86 654.411 265.86H584.454C582.072 265.86 580.142 264.153 580.142 262.049Z" fill="url(#paint35_linear_1617_3377)"/>
<path d="M665.433 262.049C665.433 259.944 667.363 258.238 669.745 258.238H702.327C704.709 258.238 706.64 259.944 706.64 262.049C706.64 264.153 704.709 265.86 702.328 265.86H669.745C667.363 265.86 665.433 264.153 665.433 262.049Z" fill="url(#paint36_linear_1617_3377)"/>
<path d="M580.142 300.16C580.142 298.055 582.072 296.349 584.454 296.349H654.411C656.792 296.349 658.723 298.055 658.723 300.16C658.723 302.264 656.792 303.971 654.411 303.971H584.454C582.072 303.971 580.142 302.264 580.142 300.16Z" fill="url(#paint37_linear_1617_3377)"/>
<path d="M148.765 35.9885C148.765 39.5965 145.454 42.5214 141.37 42.5214C137.286 42.5214 133.976 39.5965 133.976 35.9885C133.976 32.3805 137.286 29.4556 141.37 29.4556C145.454 29.4556 148.765 32.3805 148.765 35.9885Z" fill="#FED280"/>
<path d="M174.647 35.9885C174.647 39.5965 171.336 42.5214 167.252 42.5214C163.168 42.5214 159.857 39.5965 159.857 35.9885C159.857 32.3805 163.168 29.4556 167.252 29.4556C171.336 29.4556 174.647 32.3805 174.647 35.9885Z" fill="#8CFEE3" fill-opacity="0.9"/>
<path d="M200.531 35.9885C200.531 39.5965 197.22 42.5214 193.136 42.5214C189.052 42.5214 185.741 39.5965 185.741 35.9885C185.741 32.3805 189.052 29.4556 193.136 29.4556C197.22 29.4556 200.531 32.3805 200.531 35.9885Z" fill="#FF8DA9" fill-opacity="0.9"/>
<path d="M58.1514 162.461C56.117 160.116 52.4274 160.282 50.612 162.801L37.0015 181.682C34.707 184.865 36.9816 189.309 40.9055 189.309H84.9416C89.0041 189.309 91.239 184.586 88.663 181.445L81.375 172.557C79.5985 170.391 76.3544 170.194 74.3288 172.129L73.7202 172.711C71.7328 174.61 68.5614 174.461 66.7602 172.385L58.1514 162.461Z" fill="white"/>
<path d="M86.3643 148.928C86.3643 152.348 83.2269 155.121 79.3567 155.121C75.4865 155.121 72.3491 152.348 72.3491 148.928C72.3491 145.508 75.4865 142.735 79.3567 142.735C83.2269 142.735 86.3643 145.508 86.3643 148.928Z" fill="#C4C5DC"/>
<path fill-rule="evenodd" clip-rule="evenodd" d="M231.886 162.965C231.886 162.307 232.489 161.774 233.233 161.774H393.889V189.82C393.889 190.478 393.286 191.011 392.542 191.011C391.797 191.011 391.194 190.478 391.194 189.82V164.156H233.233C232.489 164.156 231.886 163.622 231.886 162.965Z" fill="url(#paint38_linear_1617_3377)"/>
<path fill-rule="evenodd" clip-rule="evenodd" d="M562.324 271.576C562.324 272.233 561.72 272.767 560.976 272.767L391.695 272.767L391.695 245.783C391.695 245.125 392.299 244.592 393.043 244.592C393.787 244.592 394.39 245.125 394.39 245.783L394.39 270.385L560.976 270.385C561.72 270.385 562.324 270.918 562.324 271.576Z" fill="url(#paint39_linear_1617_3377)"/>
<g filter="url(#filter1_d_1617_3377)">
<path fill-rule="evenodd" clip-rule="evenodd" d="M390.25 212.221C390.244 212.451 390.29 212.562 390.529 212.562H396.271C397.311 212.63 398.242 212.859 399.028 213.306C399.574 213.616 399.973 213.985 400.274 214.393C400.808 215.118 401.109 216.163 401.272 217.006C401.343 217.371 401.376 217.712 401.301 217.87C401.265 217.945 401.212 217.995 401.141 218.019C400.746 218.151 400.328 217.696 400.106 217.479C399.047 216.442 397.508 216.013 395.693 215.933H390.443C390.256 215.96 390.189 216.076 390.208 216.256V217.493C390.197 217.904 389.949 218.044 389.458 217.905L384.938 214.937L384.493 214.645L384.379 214.57C384.016 214.297 384.165 214.048 384.492 213.833L384.837 213.606L389.168 210.752C389.697 210.404 390.25 210.311 390.25 211.062V212.221ZM395.281 224.845C395.287 224.615 395.241 224.505 395.002 224.504H389.26C388.22 224.436 387.29 224.207 386.503 223.76C385.953 223.448 385.553 223.077 385.252 222.666C384.707 221.922 384.351 220.71 384.221 219.841C384.179 219.564 384.171 219.322 384.231 219.196C384.266 219.122 384.319 219.071 384.391 219.047C384.786 218.915 385.203 219.37 385.425 219.588C386.484 220.624 388.024 221.053 389.838 221.133H395.088C395.276 221.106 395.342 220.99 395.324 220.811V219.573C395.335 219.162 395.582 219.022 396.074 219.161L400.594 222.129L401.038 222.422L401.152 222.496C401.515 222.77 401.366 223.019 401.04 223.233L400.695 223.461L396.364 226.314C395.835 226.662 395.281 226.755 395.281 226.005L395.281 224.845Z" fill="#88F1DB"/>
</g>
<path d="M415.45 218.012C415.45 228.956 405.359 238.073 392.59 238.073C379.821 238.073 369.73 228.956 369.73 218.012C369.73 207.067 379.821 197.95 392.59 197.95C405.359 197.95 415.45 207.067 415.45 218.012Z" stroke="white" stroke-width="2.40629"/>
<path d="M299 162.964C299 168.226 294.173 172.492 288.219 172.492C282.265 172.492 277.438 168.226 277.438 162.964C277.438 157.703 282.265 153.437 288.219 153.437C294.173 153.437 299 157.703 299 162.964Z" fill="#383A68"/>
<path fill-rule="evenodd" clip-rule="evenodd" d="M288.219 170.586C292.982 170.586 296.844 167.174 296.844 162.964C296.844 158.755 292.982 155.342 288.219 155.342C283.455 155.342 279.594 158.755 279.594 162.964C279.594 167.174 283.455 170.586 288.219 170.586ZM288.219 172.492C294.173 172.492 299 168.226 299 162.964C299 157.703 294.173 153.437 288.219 153.437C282.265 153.437 277.438 157.703 277.438 162.964C277.438 168.226 282.265 172.492 288.219 172.492Z" fill="#63648A"/>
<path d="M534.023 271.577C534.023 276.839 529.196 281.104 523.242 281.104C517.288 281.104 512.461 276.839 512.461 271.577C512.461 266.315 517.288 262.05 523.242 262.05C529.196 262.05 534.023 266.315 534.023 271.577Z" fill="#383A68"/>
<path fill-rule="evenodd" clip-rule="evenodd" d="M523.242 279.199C528.005 279.199 531.867 275.786 531.867 271.577C531.867 267.367 528.005 263.955 523.242 263.955C518.479 263.955 514.617 267.367 514.617 271.577C514.617 275.786 518.479 279.199 523.242 279.199ZM523.242 281.104C529.196 281.104 534.023 276.839 534.023 271.577C534.023 266.315 529.196 262.05 523.242 262.05C517.288 262.05 512.461 266.315 512.461 271.577C512.461 276.839 517.288 281.104 523.242 281.104Z" fill="#63648A"/>
<path d="M162.08 175.83C162.08 171.882 165.703 168.681 170.172 168.681H193.436C197.905 168.681 201.528 171.882 201.528 175.83V196.383C201.528 200.331 197.905 203.532 193.436 203.532H170.172C165.703 203.532 162.08 200.331 162.08 196.383V175.83Z" fill="#767799"/>
<path fill-rule="evenodd" clip-rule="evenodd" d="M185.728 196.101H178.439V193.42H185.728V196.101Z" fill="white"/>
<path fill-rule="evenodd" clip-rule="evenodd" d="M171.689 178.064H191.918V182.376H188.884V180.745H174.723V182.376H171.689V178.064Z" fill="white"/>
<path fill-rule="evenodd" clip-rule="evenodd" d="M180.475 194.912L180.662 179.555L183.695 179.584L183.508 194.941L180.475 194.912Z" fill="white"/>
</g>
<defs>
<filter id="filter0_d_1617_3377" x="367.324" y="198.459" width="50.8836" height="49.773" filterUnits="userSpaceOnUse" color-interpolation-filters="sRGB">
<feFlood flood-opacity="0" result="BackgroundImageFix"/>
<feColorMatrix in="SourceAlpha" type="matrix" values="0 0 0 0 0 0 0 0 0 0 0 0 0 0 0 0 0 0 127 0" result="hardAlpha"/>
<feOffset dy="4.81257"/>
<feGaussianBlur stdDeviation="8.422"/>
<feComposite in2="hardAlpha" operator="out"/>
<feColorMatrix type="matrix" values="0 0 0 0 0.533333 0 0 0 0 0.945098 0 0 0 0 0.858824 0 0 0 1 0"/>
<feBlend mode="normal" in2="BackgroundImageFix" result="effect1_dropShadow_1617_3377"/>
<feBlend mode="normal" in="SourceGraphic" in2="effect1_dropShadow_1617_3377" result="shape"/>
</filter>
<filter id="filter1_d_1617_3377" x="367.324" y="198.459" width="50.8836" height="49.773" filterUnits="userSpaceOnUse" color-interpolation-filters="sRGB">
<feFlood flood-opacity="0" result="BackgroundImageFix"/>
<feColorMatrix in="SourceAlpha" type="matrix" values="0 0 0 0 0 0 0 0 0 0 0 0 0 0 0 0 0 0 127 0" result="hardAlpha"/>
<feOffset dy="4.81257"/>
<feGaussianBlur stdDeviation="8.422"/>
<feComposite in2="hardAlpha" operator="out"/>
<feColorMatrix type="matrix" values="0 0 0 0 0.533333 0 0 0 0 0.945098 0 0 0 0 0.858824 0 0 0 1 0"/>
<feBlend mode="normal" in2="BackgroundImageFix" result="effect1_dropShadow_1617_3377"/>
<feBlend mode="normal" in="SourceGraphic" in2="effect1_dropShadow_1617_3377" result="shape"/>
</filter>
<linearGradient id="paint0_linear_1617_3377" x1="384.469" y1="0.046875" x2="501.724" y2="564.537" gradientUnits="userSpaceOnUse">
<stop stop-color="white" stop-opacity="0.16"/>
<stop offset="1" stop-color="#C4C4C4" stop-opacity="0"/>
</linearGradient>
<linearGradient id="paint1_linear_1617_3377" x1="384.168" y1="0.0468892" x2="756.183" y2="303.74" gradientUnits="userSpaceOnUse">
<stop stop-color="white" stop-opacity="0.17"/>
<stop offset="1" stop-opacity="0"/>
</linearGradient>
<linearGradient id="paint2_linear_1617_3377" x1="50.6888" y1="134.135" x2="293.187" y2="491.408" gradientUnits="userSpaceOnUse">
<stop stop-color="#40416E"/>
<stop offset="1" stop-color="#5A5B8B"/>
</linearGradient>
<linearGradient id="paint3_linear_1617_3377" x1="116.8" y1="96.2725" x2="195.186" y2="459.411" gradientUnits="userSpaceOnUse">
<stop stop-color="white" stop-opacity="0.17"/>
<stop offset="1" stop-opacity="0"/>
</linearGradient>
<linearGradient id="paint4_linear_1617_3377" x1="379.857" y1="16.2436" x2="445.085" y2="243.796" gradientUnits="userSpaceOnUse">
<stop stop-color="white" stop-opacity="0.15"/>
<stop offset="1" stop-color="#C4C4C4" stop-opacity="0"/>
</linearGradient>
<linearGradient id="paint5_linear_1617_3377" x1="960.055" y1="569.69" x2="456.718" y2="52.6048" gradientUnits="userSpaceOnUse">
<stop stop-color="#40416E"/>
<stop offset="1" stop-color="#5A5B8B"/>
</linearGradient>
<linearGradient id="paint6_linear_1617_3377" x1="664.474" y1="201.074" x2="751.628" y2="559.969" gradientUnits="userSpaceOnUse">
<stop stop-color="white" stop-opacity="0.17"/>
<stop offset="1" stop-opacity="0"/>
</linearGradient>
<linearGradient id="paint7_linear_1617_3377" x1="664.473" y1="220.128" x2="672.827" y2="266.678" gradientUnits="userSpaceOnUse">
<stop stop-color="white" stop-opacity="0.56"/>
<stop offset="1" stop-color="#C4C4C4" stop-opacity="0"/>
</linearGradient>
<linearGradient id="paint8_linear_1617_3377" x1="610.328" y1="239.183" x2="629.58" y2="277.579" gradientUnits="userSpaceOnUse">
<stop stop-color="#F9C746" stop-opacity="0.52"/>
<stop offset="1" stop-color="#C4C4C4" stop-opacity="0"/>
</linearGradient>
<linearGradient id="paint9_linear_1617_3377" x1="662.557" y1="239.183" x2="686.55" y2="261.97" gradientUnits="userSpaceOnUse">
<stop stop-color="#84EBE5" stop-opacity="0.62"/>
<stop offset="1" stop-color="#C4C4C4" stop-opacity="0"/>
</linearGradient>
<linearGradient id="paint10_linear_1617_3377" x1="610.328" y1="315.403" x2="629.58" y2="353.8" gradientUnits="userSpaceOnUse">
<stop stop-color="white" stop-opacity="0.56"/>
<stop offset="1" stop-color="#C4C4C4" stop-opacity="0"/>
</linearGradient>
<linearGradient id="paint11_linear_1617_3377" x1="662.557" y1="315.403" x2="686.55" y2="338.19" gradientUnits="userSpaceOnUse">
<stop stop-color="#F47D9E"/>
<stop offset="1" stop-color="#C4C4C4" stop-opacity="0"/>
</linearGradient>
<linearGradient id="paint12_linear_1617_3377" x1="626.142" y1="277.293" x2="649.287" y2="294.879" gradientUnits="userSpaceOnUse">
<stop stop-color="#F2C87D"/>
<stop offset="1" stop-color="#C4C4C4" stop-opacity="0"/>
</linearGradient>
<linearGradient id="paint13_linear_1617_3377" x1="681.246" y1="277.293" x2="698.758" y2="317.764" gradientUnits="userSpaceOnUse">
<stop stop-color="white" stop-opacity="0.62"/>
<stop offset="1" stop-color="#C4C4C4" stop-opacity="0"/>
</linearGradient>
<linearGradient id="paint14_linear_1617_3377" x1="587.808" y1="275.387" x2="631.696" y2="282.4" gradientUnits="userSpaceOnUse">
<stop stop-color="#F37D9D"/>
<stop offset="1" stop-color="#C4C4C4" stop-opacity="0"/>
</linearGradient>
<linearGradient id="paint15_linear_1617_3377" x1="619.432" y1="258.238" x2="635.55" y2="300.078" gradientUnits="userSpaceOnUse">
<stop stop-color="white" stop-opacity="0.58"/>
<stop offset="1" stop-color="#C4C4C4" stop-opacity="0"/>
</linearGradient>
<linearGradient id="paint16_linear_1617_3377" x1="686.036" y1="258.238" x2="708.962" y2="289.446" gradientUnits="userSpaceOnUse">
<stop stop-color="white" stop-opacity="0.45"/>
<stop offset="1" stop-color="#C4C4C4" stop-opacity="0"/>
</linearGradient>
<linearGradient id="paint17_linear_1617_3377" x1="619.432" y1="296.349" x2="635.55" y2="338.189" gradientUnits="userSpaceOnUse">
<stop stop-color="#70D1E7"/>
<stop offset="1" stop-color="#C4C4C4" stop-opacity="0"/>
</linearGradient>
<linearGradient id="paint18_linear_1617_3377" x1="379.152" y1="156.387" x2="167.877" y2="228.542" gradientUnits="userSpaceOnUse">
<stop stop-color="#767799"/>
<stop offset="1" stop-color="#767799" stop-opacity="0"/>
</linearGradient>
<linearGradient id="paint19_linear_1617_3377" x1="407.274" y1="278.153" x2="627.301" y2="199.002" gradientUnits="userSpaceOnUse">
<stop stop-color="#767799"/>
<stop offset="1" stop-color="#767799" stop-opacity="0"/>
</linearGradient>
<linearGradient id="paint20_linear_1617_3377" x1="384.469" y1="0.046875" x2="501.724" y2="564.537" gradientUnits="userSpaceOnUse">
<stop stop-color="white" stop-opacity="0.16"/>
<stop offset="1" stop-color="#C4C4C4" stop-opacity="0"/>
</linearGradient>
<linearGradient id="paint21_linear_1617_3377" x1="384.168" y1="0.0468892" x2="756.183" y2="303.74" gradientUnits="userSpaceOnUse">
<stop stop-color="white" stop-opacity="0.17"/>
<stop offset="1" stop-opacity="0"/>
</linearGradient>
<linearGradient id="paint22_linear_1617_3377" x1="50.6888" y1="134.135" x2="293.187" y2="491.408" gradientUnits="userSpaceOnUse">
<stop stop-color="#40416E"/>
<stop offset="1" stop-color="#5A5B8B"/>
</linearGradient>
<linearGradient id="paint23_linear_1617_3377" x1="116.8" y1="96.2725" x2="195.186" y2="459.411" gradientUnits="userSpaceOnUse">
<stop stop-color="white" stop-opacity="0.17"/>
<stop offset="1" stop-opacity="0"/>
</linearGradient>
<linearGradient id="paint24_linear_1617_3377" x1="379.857" y1="16.2436" x2="445.085" y2="243.796" gradientUnits="userSpaceOnUse">
<stop stop-color="white" stop-opacity="0.15"/>
<stop offset="1" stop-color="#C4C4C4" stop-opacity="0"/>
</linearGradient>
<linearGradient id="paint25_linear_1617_3377" x1="960.055" y1="569.69" x2="456.718" y2="52.6048" gradientUnits="userSpaceOnUse">
<stop stop-color="#40416E"/>
<stop offset="1" stop-color="#5A5B8B"/>
</linearGradient>
<linearGradient id="paint26_linear_1617_3377" x1="664.474" y1="201.074" x2="751.628" y2="559.969" gradientUnits="userSpaceOnUse">
<stop stop-color="white" stop-opacity="0.17"/>
<stop offset="1" stop-opacity="0"/>
</linearGradient>
<linearGradient id="paint27_linear_1617_3377" x1="664.473" y1="220.128" x2="672.827" y2="266.678" gradientUnits="userSpaceOnUse">
<stop stop-color="white" stop-opacity="0.56"/>
<stop offset="1" stop-color="#C4C4C4" stop-opacity="0"/>
</linearGradient>
<linearGradient id="paint28_linear_1617_3377" x1="610.328" y1="239.183" x2="629.58" y2="277.579" gradientUnits="userSpaceOnUse">
<stop stop-color="#F9C746" stop-opacity="0.52"/>
<stop offset="1" stop-color="#C4C4C4" stop-opacity="0"/>
</linearGradient>
<linearGradient id="paint29_linear_1617_3377" x1="662.557" y1="239.183" x2="686.55" y2="261.97" gradientUnits="userSpaceOnUse">
<stop stop-color="#84EBE5" stop-opacity="0.62"/>
<stop offset="1" stop-color="#C4C4C4" stop-opacity="0"/>
</linearGradient>
<linearGradient id="paint30_linear_1617_3377" x1="610.328" y1="315.403" x2="629.58" y2="353.8" gradientUnits="userSpaceOnUse">
<stop stop-color="white" stop-opacity="0.56"/>
<stop offset="1" stop-color="#C4C4C4" stop-opacity="0"/>
</linearGradient>
<linearGradient id="paint31_linear_1617_3377" x1="662.557" y1="315.403" x2="686.55" y2="338.19" gradientUnits="userSpaceOnUse">
<stop stop-color="#F47D9E"/>
<stop offset="1" stop-color="#C4C4C4" stop-opacity="0"/>
</linearGradient>
<linearGradient id="paint32_linear_1617_3377" x1="626.142" y1="277.293" x2="649.287" y2="294.879" gradientUnits="userSpaceOnUse">
<stop stop-color="#F2C87D"/>
<stop offset="1" stop-color="#C4C4C4" stop-opacity="0"/>
</linearGradient>
<linearGradient id="paint33_linear_1617_3377" x1="681.246" y1="277.293" x2="698.758" y2="317.764" gradientUnits="userSpaceOnUse">
<stop stop-color="white" stop-opacity="0.62"/>
<stop offset="1" stop-color="#C4C4C4" stop-opacity="0"/>
</linearGradient>
<linearGradient id="paint34_linear_1617_3377" x1="587.808" y1="275.387" x2="631.696" y2="282.4" gradientUnits="userSpaceOnUse">
<stop stop-color="#F37D9D"/>
<stop offset="1" stop-color="#C4C4C4" stop-opacity="0"/>
</linearGradient>
<linearGradient id="paint35_linear_1617_3377" x1="619.432" y1="258.238" x2="635.55" y2="300.078" gradientUnits="userSpaceOnUse">
<stop stop-color="white" stop-opacity="0.58"/>
<stop offset="1" stop-color="#C4C4C4" stop-opacity="0"/>
</linearGradient>
<linearGradient id="paint36_linear_1617_3377" x1="686.036" y1="258.238" x2="708.962" y2="289.446" gradientUnits="userSpaceOnUse">
<stop stop-color="white" stop-opacity="0.45"/>
<stop offset="1" stop-color="#C4C4C4" stop-opacity="0"/>
</linearGradient>
<linearGradient id="paint37_linear_1617_3377" x1="619.432" y1="296.349" x2="635.55" y2="338.189" gradientUnits="userSpaceOnUse">
<stop stop-color="#70D1E7"/>
<stop offset="1" stop-color="#C4C4C4" stop-opacity="0"/>
</linearGradient>
<linearGradient id="paint38_linear_1617_3377" x1="379.152" y1="156.387" x2="167.877" y2="228.542" gradientUnits="userSpaceOnUse">
<stop stop-color="#767799"/>
<stop offset="1" stop-color="#767799" stop-opacity="0"/>
</linearGradient>
<linearGradient id="paint39_linear_1617_3377" x1="407.274" y1="278.153" x2="627.301" y2="199.002" gradientUnits="userSpaceOnUse">
<stop stop-color="#767799"/>
<stop offset="1" stop-color="#767799" stop-opacity="0"/>
</linearGradient>
</defs>
</svg>
